{
    "asset" : {
        "generator" : "Khronos glTF Blender I/O v1.7.33",
        "version" : "2.0"
    },
    "scene" : 0,
    "scenes" : [
        {
            "name" : "Scene",
            "nodes" : [
                0,
                1,
                2,
                3,
                4,
                5
            ]
        }
    ],
    "nodes" : [
        {
            "mesh" : 0,
            "name" : "Cube"
        },
        {
            "mesh" : 1,
            "name" : "Cube.001"
        },
        {
            "mesh" : 2,
            "name" : "Sphere"
        },
        {
            "mesh" : 3,
            "name" : "Cube.002"
        },
        {
            "mesh" : 4,
            "name" : "Cube.003"
        },
        {
            "mesh" : 5,
            "name" : "Cube.004"
        }
    ],
    "meshes" : [
        {
            "name" : "Cube.001",
            "primitives" : [
                {
                    "attributes" : {
                        "POSITION" : 0,
                        "NORMAL" : 1,
                        "TEXCOORD_0" : 2
                    },
                    "indices" : 3
                }
            ]
        },
        {
            "name" : "Cube.002",
            "primitives" : [
                {
                    "attributes" : {
                        "POSITION" : 4,
                        "NORMAL" : 5,
                        "TEXCOORD_0" : 6
                    },
                    "indices" : 7
                }
            ]
        },
        {
            "name" : "Sphere",
            "primitives" : [
                {
                    "attributes" : {
                        "POSITION" : 8,
                        "NORMAL" : 9,
                        "TEXCOORD_0" : 10
                    },
                    "indices" : 11
                }
            ]
        },
        {
            "name" : "Cube",
            "primitives" : [
                {
                    "attributes" : {
                        "POSITION" : 12,
                        "NORMAL" : 13,
                        "TEXCOORD_0" : 14
                    },
                    "indices" : 3
                }
            ]
        },
        {
            "name" : "Cube.003",
            "primitives" : [
                {
                    "attributes" : {
                        "POSITION" : 15,
                        "NORMAL" : 16,
                        "TEXCOORD_0" : 17
                    },
                    "indices" : 3
                }
            ]
        },
        {
            "name" : "Cube.004",
            "primitives" : [
                {
                    "attributes" : {
                        "POSITION" : 18,
                        "NORMAL" : 19,
                        "TEXCOORD_0" : 20
                    },
                    "indices" : 3
                }
            ]
        }
    ],
    "accessors" : [
        {
            "bufferView" : 0,
            "componentType" : 5126,
            "count" : 24,
            "max" : [
                52.9264030456543,
                0.4452022612094879,
                58.77476119995117
            ],
            "min" : [
                -52.9264030456543,
                -0.4452022612094879,
                -58.77476119995117
            ],
            "type" : "VEC3"
        },
        {
            "bufferView" : 1,
            "componentType" : 5126,
            "count" : 24,
            "type" : "VEC3"
        },
        {
            "bufferView" : 2,
            "componentType" : 5126,
            "count" : 24,
            "type" : "VEC2"
        },
        {
            "bufferView" : 3,
            "componentType" : 5123,
            "count" : 36,
            "type" : "SCALAR"
        },
        {
            "bufferView" : 4,
            "componentType" : 5126,
            "count" : 36,
            "max" : [
                3.3642351627349854,
                25.34674835205078,
                5.707602500915527
            ],
            "min" : [
                -3.3642351627349854,
                -2.1160898208618164,
                -5.707602500915527
            ],
            "type" : "VEC3"
        },
        {
            "bufferView" : 5,
            "componentType" : 5126,
            "count" : 36,
            "type" : "VEC3"
        },
        {
            "bufferView" : 6,
            "componentType" : 5126,
            "count" : 36,
            "type" : "VEC2"
        },
        {
            "bufferView" : 7,
            "componentType" : 5123,
            "count" : 36,
            "type" : "SCALAR"
        },
        {
            "bufferView" : 8,
            "componentType" : 5126,
            "count" : 2838,
            "max" : [
                16.836833953857422,
                5.744963645935059,
                33.55904006958008
            ],
            "min" : [
                12.846673011779785,
                1.7548002004623413,
                29.568876266479492
            ],
            "type" : "VEC3"
        },
        {
            "bufferView" : 9,
            "componentType" : 5126,
            "count" : 2838,
            "type" : "VEC3"
        },
        {
            "bufferView" : 10,
            "componentType" : 5126,
            "count" : 2838,
            "type" : "VEC2"
        },
        {
            "bufferView" : 11,
            "componentType" : 5123,
            "count" : 2880,
            "type" : "SCALAR"
        },
        {
            "bufferView" : 12,
            "componentType" : 5126,
            "count" : 24,
            "max" : [
                -24.57111167907715,
                3.7880144119262695,
                14.811617851257324
            ],
            "min" : [
                -26.57111167907715,
                1.7880144119262695,
                12.811617851257324
            ],
            "type" : "VEC3"
        },
        {
            "bufferView" : 13,
            "componentType" : 5126,
            "count" : 24,
            "type" : "VEC3"
        },
        {
            "bufferView" : 14,
            "componentType" : 5126,
            "count" : 24,
            "type" : "VEC2"
        },
        {
            "bufferView" : 15,
            "componentType" : 5126,
            "count" : 24,
            "max" : [
                1,
                2.6283299922943115,
                -31.541000366210938
            ],
            "min" : [
                -1,
                0.6283299922943115,
                -33.54100036621094
            ],
            "type" : "VEC3"
        },
        {
            "bufferView" : 16,
            "componentType" : 5126,
            "count" : 24,
            "type" : "VEC3"
        },
        {
            "bufferView" : 17,
            "componentType" : 5126,
            "count" : 24,
            "type" : "VEC2"
        },
        {
            "bufferView" : 18,
            "componentType" : 5126,
            "count" : 24,
            "max" : [
                32.10100555419922,
                20.193477630615234,
                -12.618098258972168
            ],
            "min" : [
                30.101003646850586,
                0.44344043731689453,
                -14.618098258972168
            ],
            "type" : "VEC3"
        },
        {
            "bufferView" : 19,
            "componentType" : 5126,
            "count" : 24,
            "type" : "VEC3"
        },
        {
            "bufferView" : 20,
            "componentType" : 5126,
            "count" : 24,
            "type" : "VEC2"
        }
    ],
    "bufferViews" : [
        {
            "buffer" : 0,
            "byteLength" : 288,
            "byteOffset" : 0
        },
        {
            "buffer" : 0,
            "byteLength" : 288,
            "byteOffset" : 288
        },
        {
            "buffer" : 0,
            "byteLength" : 192,
            "byteOffset" : 576
        },
        {
            "buffer" : 0,
            "byteLength" : 72,
            "byteOffset" : 768
        },
        {
            "buffer" : 0,
            "byteLength" : 432,
            "byteOffset" : 840
        },
        {
            "buffer" : 0,
            "byteLength" : 432,
            "byteOffset" : 1272
        },
        {
            "buffer" : 0,
            "byteLength" : 288,
            "byteOffset" : 1704
        },
        {
            "buffer" : 0,
            "byteLength" : 72,
            "byteOffset" : 1992
        },
        {
            "buffer" : 0,
            "byteLength" : 34056,
            "byteOffset" : 2064
        },
        {
            "buffer" : 0,
            "byteLength" : 34056,
            "byteOffset" : 36120
        },
        {
            "buffer" : 0,
            "byteLength" : 22704,
            "byteOffset" : 70176
        },
        {
            "buffer" : 0,
            "byteLength" : 5760,
            "byteOffset" : 92880
        },
        {
            "buffer" : 0,
            "byteLength" : 288,
            "byteOffset" : 98640
        },
        {
            "buffer" : 0,
            "byteLength" : 288,
            "byteOffset" : 98928
        },
        {
            "buffer" : 0,
            "byteLength" : 192,
            "byteOffset" : 99216
        },
        {
            "buffer" : 0,
            "byteLength" : 288,
            "byteOffset" : 99408
        },
        {
            "buffer" : 0,
            "byteLength" : 288,
            "byteOffset" : 99696
        },
        {
            "buffer" : 0,
            "byteLength" : 192,
            "byteOffset" : 99984
        },
        {
            "buffer" : 0,
            "byteLength" : 288,
            "byteOffset" : 100176
        },
        {
            "buffer" : 0,
            "byteLength" : 288,
            "byteOffset" : 100464
        },
        {
            "buffer" : 0,
            "byteLength" : 192,
            "byteOffset" : 100752
        }
    ],
    "buffers" : [
        {
            "byteLength" : 100944,
            "uri" : "cubes.bin"
        }
    ]
}
